<svg xmlns="http://www.w3.org/2000/svg" width="256" height="256"><path fill-opacity=".016" d="M0 128.004v128.004l128.25-.254 128.25-.254.254-127.75L257.008 0H0v128.004m.485.496c0 70.4.119 99.053.265 63.672.146-35.38.146-92.98 0-128C.604 29.153.485 58.1.485 128.5" fill="#393939" fill-rule="evenodd"/><path fill-opacity=".159" d="M109 54.052c-15.125 3.915-30.219 13.453-40.012 25.282-6.087 7.352-13.175 21.547-15.453 30.947-2.104 8.679-2.166 25.187-.128 33.974 5.169 22.287 19.846 41.139 39.792 51.11 13.365 6.682 19.711 8.131 35.301 8.062 11.96-.053 13.76-.317 22.5-3.302 41.237-14.08 62.32-56.491 48.411-97.386-8.22-24.169-29.872-43.471-55.108-49.126-9.938-2.227-25.765-2.03-35.303.439m6.363 3.972C101.341 60.555 89.007 67.14 77.947 78c-8.534 8.381-13.79 16.908-17.772 28.833-2.236 6.695-2.563 9.379-2.58 21.167-.019 12.219.244 14.259 2.766 21.5 9.618 27.614 31.54 45.346 59.834 48.398 21.684 2.339 42.22-5.05 57.824-20.806 21.268-21.475 26.157-54.22 12.255-82.092-5.577-11.18-18.856-24.293-30.274-29.893-4.675-2.294-10.975-4.842-14-5.663-6.871-1.865-23.821-2.651-30.637-1.42M103.25 80.701c-1.33.496-1.66 4.066-.625 6.764.751 1.957 10.048 6.855 11.412 6.012.53-.327.963-1.146.963-1.82 0-1.862-10.323-11.487-11.75-10.956m-14.927 3.376c-1.229 1.229 5.6 17.786 7.967 19.314 1.918 1.238 13.119-5.366 13.485-7.951.217-1.533-1.8-3.04-9.623-7.19C94.708 85.362 90.062 83 89.827 83c-.235 0-.912.485-1.504 1.077M118.5 89.25c-.24.688-.339 2.132-.219 3.211.171 1.528-2.261 3.397-11.031 8.476-10.217 5.918-12.653 8.098-10.5 9.398.412.249 7.616.613 16.008.809 13.093.305 15.168.569 14.622 1.856-1.619 3.812-1.272 5.793 1.837 10.5l3.303 5 12.352 1.736 12.352 1.737 6.388-5.609c3.513-3.084 6.388-5.894 6.388-6.243 0-.802-12.033-16.104-18.029-22.928l-4.53-5.154-13.47-2.013c-15.98-2.388-14.926-2.335-15.471-.776m-18.3 24.95c-.729.729-1.2 4.274-1.2 9.031 0 11.121 1.317 11.268 10.617 1.186 9.669-10.481 9.635-11.417-.417-11.417-4.733 0-8.272.472-9 1.2m9.8 12.344c-4.125 4.656-7.5 9.025-7.5 9.71 0 1.456 14.465 8.68 16.125 8.053.69-.261 1.404-5.096 1.846-12.498.574-9.628.448-12.245-.625-12.926-.74-.469-1.571-.842-1.846-.828-.275.013-3.875 3.833-8 8.489m14.341-3.752c-.668.414-1.441 5.329-1.862 11.837l-.721 11.13 10.325 15.12L142.407 176h7.689c5.376 0 7.84-.39 8.187-1.296.389-1.013-29.257-48.925-32.121-51.912-.373-.39-1.193-.39-1.821 0m-22.267 18.619c-.747.9.526 5.146 4.548 15.17 8.604 21.44 6.701 19.419 18.281 19.419 7.119 0 10.167-.38 10.988-1.369 1.833-2.209-13.073-25.173-17.958-27.665-10.184-5.195-14.812-6.817-15.859-5.555m-9.324 4.26c-4.205 5.583-3.726 6.985 2.857 8.351 7.442 1.545 8.252.673 5.78-6.217-2.407-6.71-4.753-7.289-8.637-2.134m7.276 21.277c-3.94 7.805-3.395 9.052 3.959 9.052 7.814 0 8.423-1.018 5.237-8.75-3.372-8.185-5.187-8.244-9.196-.302" fill="#393939" fill-rule="evenodd"/><path fill-opacity=".488" d="M113.669 53.526C65.043 62.738 38.041 116.102 59.54 160.5 72.394 187.046 98.093 203 128 203c13.012 0 22.533-2.221 33.63-7.846 20.014-10.145 33.927-27.796 39.507-50.123 3.105-12.425 2.358-29.081-1.849-41.225-8.192-23.65-27.629-42.125-51.315-48.773-9.898-2.778-24.264-3.409-34.304-1.507m-3.162 5.089c-14.305 3.458-30.141 13.837-39.022 25.576C61.45 97.455 56.655 111.49 56.688 127.5c.026 12.456 2.104 21.408 7.547 32.5 3.367 6.863 5.919 10.257 13.25 17.622 7.752 7.789 10.462 9.789 18.547 13.695 37.024 17.887 78.375 3.33 96.063-33.817 18.896-39.681-3.804-87.556-46.718-98.532-9.267-2.369-25.833-2.537-34.87-.353M103.19 84.75c.278 3.359.831 4.031 5.31 6.448 2.859 1.542 5.376 2.323 5.877 1.823 1.038-1.036-8.254-11.99-10.187-12.008-.905-.009-1.215 1.149-1 3.737m-14.698-.737c-.71 1.149 6.221 17.966 7.889 19.142 1.256.885 13.041-5.72 13.424-7.524.195-.921-3.203-3.352-9.484-6.783-5.383-2.942-10.091-5.484-10.462-5.651-.372-.166-.987.201-1.367.816m30.21 5.618c-.347.348-.181 1.474.37 2.503 1.091 2.039 1.292 1.889-15.497 11.568-7.291 4.203-7.776 4.678-6.059 5.933 1.378 1.008 5.743 1.365 16.675 1.365 8.145 0 14.809.302 14.809.671 0 .369-.766 1.517-1.701 2.551-1.608 1.777-1.574 2.114.628 6.144 4.153 7.602 4.045 7.538 15.187 9.121 5.712.812 11.362 1.485 12.555 1.495C157.894 131 169 121.657 169 119.766c0-1.544-18.679-24.517-21.264-26.153-1.23-.779-7.268-2.135-13.418-3.014-12.306-1.76-14.677-1.907-15.616-.968M100 122.441c0 4.643.405 8.691.899 8.997.952.588 16.101-14.956 16.101-16.521 0-.504-3.825-.917-8.5-.917H100v8.441m10.25 4.487c-3.987 4.36-7.25 8.553-7.25 9.319 0 1.648 14.413 8.234 15.947 7.286 1.604-.991 1.415-24.533-.197-24.532-.687 0-4.513 3.567-8.5 7.927m13.438-3.282c-.379.378-.688 5.677-.688 11.776v11.089l9.51 14.244L142.021 175h7.989c4.571 0 7.99-.421 7.99-.984 0-1.422-31.481-50.343-32.647-50.732-.538-.179-1.287-.016-1.665.362m-21.267 18.699c-.284.739 2.324 8.277 5.795 16.75l6.311 15.405 10.737.284c7.755.205 10.736-.045 10.736-.899 0-.65-3.262-6.489-7.25-12.976l-7.25-11.793-8.793-4.058c-9.995-4.613-9.597-4.508-10.286-2.713m-9.326 3.687c-1.782 2.217-3.067 4.552-2.855 5.188.579 1.736 10.527 3.775 11.64 2.386 1.127-1.407-2.692-11.606-4.347-11.606-.659 0-2.656 1.814-4.438 4.032m7.197 21.119c-1.765 3.396-2.976 6.552-2.691 7.012.718 1.162 12.146 1.056 12.872-.12.853-1.38-4.033-12.494-5.63-12.805-.765-.15-2.724 2.395-4.551 5.913" fill="#393939" fill-rule="evenodd"/><path fill-opacity=".297" d="M93 88.804c0 1.273 4.375 11.196 4.934 11.191.311-.003 2.268-1.036 4.349-2.296l3.784-2.29-6.534-3.631C95.94 89.781 93 88.442 93 88.804m30 5.028c0 1.562-2.46 3.448-10.25 7.861L102.5 107.5l14.792.277c16.461.308 17.566.805 13.743 6.173l-2.151 3.021 3.001 4.362 3.002 4.363 10.581 1.254c11.532 1.366 10.926 1.517 17.227-4.291l3.195-2.945-5.517-7.107c-3.035-3.909-7.488-9.415-9.897-12.235-4.36-5.104-4.419-5.133-12.678-6.297-4.564-.643-9.761-1.423-11.548-1.733-2.795-.486-3.25-.277-3.25 1.49m-20.333 22.835c-.921.921-.844 10.359.083 10.225.412-.059 2.955-2.534 5.651-5.5l4.901-5.392h-4.985c-2.741 0-5.284.3-5.65.667m8.582 13.224l-5.25 5.976 5.25 2.39 5.251 2.389.306-3.793c.168-2.086.168-5.85 0-8.365l-.306-4.573-5.251 5.976m14.47 6.795l-.553 7.814 9.421 14.25 9.421 14.25h4.996c2.748 0 4.996-.255 4.996-.567 0-.558-25.678-41.163-27.032-42.747-.383-.448-.945 2.702-1.249 7m-19.249 10.221c.323 1.016 2.725 7.149 5.338 13.629 5.256 13.032 4.882 12.727 14.266 11.641l5.857-.677-5.569-9c-6.895-11.144-7.504-11.762-14.67-14.899-5.265-2.305-5.753-2.37-5.222-.694m-11.339 1.435c-1.304 1.572-.511 2.658 1.942 2.658 1.247 0 1.592-.566 1.217-2-.61-2.331-1.599-2.537-3.159-.658m7.428 20.543l-1.61 3.115h3.093c2.742 0 3.016-.255 2.413-2.25-1.165-3.857-2.226-4.093-3.896-.865" fill="#393939" fill-rule="evenodd"/></svg>