<svg xmlns="http://www.w3.org/2000/svg" width="256" height="256"><path fill-opacity=".004" d="M0 128.004v128.004l128.25-.254 128.25-.254.254-127.75L257.008 0H0v128.004m.485.496c0 70.4.119 99.053.265 63.672.146-35.38.146-92.98 0-128C.604 29.153.485 58.1.485 128.5" fill="#393939" fill-rule="evenodd"/><path fill-opacity=".016" d="M95.149 50.166c.528 2.352 1.048 4.329 1.156 4.393 2.339 1.386 14.103 6.367 14.381 6.088.577-.577-13.608-14.097-15.163-14.452-1.066-.244-1.142.556-.374 3.971M91.25 203.28c-2.338 4.114-4.25 7.759-4.25 8.1 0 .341 3.405.62 7.567.62 8.679 0 8.467.616 3.554-10.35L95.5 195.8l-4.25 7.48" fill="#393939" fill-rule="evenodd"/><path fill-opacity=".124" d="M95.328 48.875c.37 1.856.672 3.764.672 4.24 0 .71 12.286 6.885 13.697 6.885.978 0-1.094-2.145-7.859-8.138L94.656 45.5l.672 3.375" fill="#393939" fill-rule="evenodd"/><path fill-opacity=".137" d="M95.782 49.968c.516 3.517 1.168 4.103 7.718 6.951l5 2.173-5.969-6.046C99.249 49.721 96.289 47 95.954 47c-.334 0-.412 1.336-.172 2.968" fill="#393939" fill-rule="evenodd"/></svg>