<svg xmlns="http://www.w3.org/2000/svg" width="256" height="256"><path fill-opacity=".016" d="M0 128.004v128.004l128.25-.254 128.25-.254.254-127.75L257.008 0H0v128.004m.485.496c0 70.4.119 99.053.265 63.672.146-35.38.146-92.98 0-128C.604 29.153.485 58.1.485 128.5" fill="#393939" fill-rule="evenodd"/><path fill-opacity=".593" d="M103.5 15.972C68.753 23.506 39.632 45.855 23.981 77c-18.749 37.31-14.869 83.475 9.8 116.586 6.942 9.317 19.355 21.394 28.076 27.317 33.97 23.069 78.499 26.35 115.795 8.533 32.572-15.561 56.62-46.986 62.898-82.194 2.076-11.646 1.835-30.537-.538-42.185-8.668-42.531-40.044-75.615-83.118-87.641-8.095-2.26-11.814-2.677-26.894-3.009-14.632-.323-18.975-.067-26.5 1.565" fill="#393939" fill-rule="evenodd"/><path fill-opacity=".168" d="M116 14.63c-11.229 1.609-17.735 3.019-25.359 5.5-36.157 11.764-64.709 41.985-74.322 78.664-3.131 11.946-4.208 32.685-2.357 45.382 6.906 47.366 44.882 85.929 92.919 94.354 12.325 2.162 31.156 1.906 43.462-.59 35.315-7.164 64.727-29.935 80.077-61.996 14.428-30.134 15.003-63.701 1.616-94.185-15.749-35.859-50.992-61.804-90.536-66.65-8.536-1.046-20.03-1.262-25.5-.479m-5.165 11.843C88.908 30.067 71.287 39 54.7 54.93 41.132 67.96 31.832 83.673 26.84 102c-2.012 7.385-2.308 10.729-2.259 25.5.047 14.124.416 18.299 2.178 24.675 8.144 29.472 26.972 52.62 53.741 66.071 16.093 8.087 32.04 11.313 51.773 10.473 26.437-1.125 47.798-10.167 66.6-28.192 13.836-13.264 22.49-27.374 27.588-44.98 7.099-24.519 5.034-49.41-5.989-72.207-16.613-34.357-50.548-56.303-89.427-57.833-7.378-.291-14.672.058-20.21.966M91.155 43.25c.377 4.538.722 9.924.765 11.97.078 3.64.243 3.795 7.721 7.25 4.202 1.941 7.915 3.522 8.25 3.513.335-.01 1.585-1.415 2.778-3.122l2.169-3.105-10.54-12.378C96.5 40.57 91.467 35 91.113 35c-.355 0-.336 3.712.042 8.25M73.45 53.75c3.947 10.395 15.043 34.241 15.918 34.209 1.885-.069 26.029-15.384 25.947-16.459-.066-.877-39.447-19.234-41.672-19.426-.471-.041-.558.714-.193 1.676m43.037 12.23c1.382 2.189 2.513 4.38 2.513 4.87 0 .489-8.437 6.235-18.75 12.769L81.5 95.5l24.353.268 24.353.268-1.618 2.469c-1.567 2.393-1.457 2.728 3.528 10.732 2.83 4.545 5.211 8.35 5.291 8.456.079.106 7.66 1.183 16.844 2.393l16.7 2.201 6.646-5.893c3.656-3.242 7.829-6.875 9.275-8.074 3.246-2.693 3.715-1.837-11.297-20.642-12.035-15.077-15.866-19.101-19.075-20.036-2.813-.821-37.036-5.642-40.044-5.642h-2.481l2.512 3.98M90.715 98.736l-4.785.376.114 18.944c.063 10.419.491 18.944.952 18.944.922 0 36.302-36.556 36.837-38.062.32-.899-22.477-1.038-33.118-.202m16.059 23.997c-9.2 9.644-16.534 17.846-16.299 18.226.588.952 32.453 14.456 32.914 13.949.81-.891 1.757-49.901.962-49.809-.468.055-8.378 7.99-17.577 17.634m21.882-3.5c-.354 4.547-.647 15.123-.65 23.503L128 157.972l14.106 21.514L156.212 201h13.894c7.642 0 13.894-.211 13.894-.47 0-.379-53.676-88.374-54.471-89.297-.126-.147-.52 3.453-.873 8M76.072 154.13c-4.635 4.866-8.235 9.004-8 9.194.854.69 25.295 5.643 25.725 5.213.683-.684-7.421-22.93-8.417-23.103-.484-.084-4.672 3.829-9.308 8.696m13.942-7.947c.007.174 4.928 12.917 10.934 28.317l10.92 28 19.566.271c10.761.149 19.566.007 19.566-.315 0-.323-6.304-9.953-14.01-21.401l-14.01-20.813-14.439-6.538c-13.97-6.324-18.556-8.186-18.527-7.521m-1.764 41.741c-3.987 7.079-7.25 13.367-7.25 13.974 0 .749 4.36 1.102 13.607 1.102 10.487 0 13.492-.287 13.104-1.25-6.229-15.491-11.112-26.744-11.596-26.724-.338.015-3.878 5.819-7.865 12.898" fill="#393939" fill-rule="evenodd"/><path fill-opacity=".741" d="M114 20.118c-15.731 1.799-35.171 9.061-48.456 18.1-25.208 17.15-42.271 44.145-46.595 73.716-1.593 10.898-.672 30.066 1.956 40.701 5.778 23.385 20.501 45.628 40.023 60.468 9.12 6.932 26.641 15.371 38.572 18.576 9.106 2.446 11.608 2.686 28 2.682 19.645-.004 24.478-.857 41.04-7.244 26.419-10.188 49.736-33.455 60.246-60.117C255.11 100.221 210.837 28.152 138.5 20.027c-10.174-1.142-13.841-1.129-24.5.091m-7.5 6.484c-20.114 4.462-36.77 13.102-50.867 26.389C35.91 71.58 24.901 95.12 23.331 122.061c-3.495 60.005 48.146 110.941 109.112 107.622 45.872-2.497 83.477-32.921 95.798-77.508 1.762-6.376 2.131-10.551 2.178-24.675.049-14.771-.247-18.115-2.259-25.5-9.895-36.327-38.129-64.261-74.985-74.187-10.42-2.807-36.438-3.482-46.675-1.211M91.411 42.038c1.585 18.01.945 16.472 8.288 19.908 7.929 3.711 8.621 3.741 10.764.469 1.47-2.242 1.507-2.804.277-4.25-.779-.916-5.594-6.598-10.701-12.627l-9.285-10.962.657 7.462M74 53.36c0 .966 14.071 33.095 14.808 33.813.499.485 24.927-13.651 26.925-15.581.19-.183-36.205-16.653-40.483-18.319-.687-.268-1.25-.229-1.25.087m43.337 12.953c1.465 2.499 2.663 4.747 2.663 4.995 0 .249-8.159 5.569-18.13 11.822L83.739 94.5l12.881.636c7.084.35 17.787.687 23.785.75 10.498.11 10.843.182 9.25 1.943-.91 1.006-1.655 2.265-1.655 2.798 0 .534 2.206 4.546 4.902 8.915l4.901 7.945 16.349 2.104 16.348 2.103 4-3.25c2.2-1.787 6.404-5.431 9.343-8.097l5.343-4.847-11.967-15c-6.582-8.25-13.712-16.66-15.843-18.688l-3.876-3.689-18.5-2.6c-10.175-1.43-19.811-2.859-21.413-3.177l-2.912-.576 2.662 4.543M87 118.039v19.039l14.843-15.289c8.163-8.409 16.31-16.976 18.103-19.039l3.261-3.75H87v19.039m20.106 5.123c-9.231 9.544-16.004 17.314-15.5 17.783.492.458 7.726 3.754 16.077 7.325l15.183 6.493.624-6.132c.342-3.372.485-14.296.316-24.275l-.306-18.144-16.394 16.95m21.695 11.706l-.301 23.368 13.851 20.801 13.851 20.8 8.149.659c4.482.362 10.675.511 13.763.331l5.614-.327-26.417-43c-14.53-23.65-26.821-43.675-27.313-44.5-.549-.921-1.012 7.528-1.197 21.868m-52.193 19.024c-8.135 8.172-8.624 8.887-6.455 9.424 8.994 2.23 22.118 4.746 22.542 4.322.506-.506-2.029-8.754-5.49-17.863l-1.796-4.726-8.801 8.843m14.689-5.642c.281.688 5.035 12.894 10.566 27.125 5.53 14.232 10.186 25.985 10.346 26.119.16.133 8.729.481 19.041.772 13.773.389 18.732.225 18.682-.618-.037-.631-6.224-10.128-13.75-21.103L122.5 160.589l-15-6.781c-15.799-7.143-17.022-7.563-16.203-5.558m-2.971 40.527L81.152 201.5l12.56.281c6.908.154 12.723.117 12.923-.083.495-.495-9.905-25.705-10.59-25.671-.3.015-3.773 5.753-7.719 12.75" fill="#393939" fill-rule="evenodd"/></svg>